<svg width="720" height="199" viewBox="0 0 720 199" fill="none" xmlns="http://www.w3.org/2000/svg">
<path d="M50 145C38.8 145 29.5333 143.467 22.2 140.4C15 137.333 9.6 133.267 6 128.2C2.53333 123.267 0.800001 117.933 0.800001 112.2C0.800001 105.8 2.8 99.4 6.8 93C10.8 86.6 16.6667 81 24.4 76.2C32.1333 71.2667 41.5333 67.9333 52.6 66.2C49.2667 64.3333 46.8667 62.1333 45.4 59.6C43.9333 57.0667 43.2 54.4667 43.2 51.8C43.2 49.4 43.7333 46.8667 44.8 44.2C39.6 42.4667 34.8 40.4 30.4 38C26.1333 35.4667 22.4667 32.6 19.4 29.4C16.8667 26.7333 14.9333 23.8667 13.6 20.8C12.2667 17.7333 11.6 14.8667 11.6 12.2C11.6 8.86666 12.6667 6.06666 14.8 3.8C16.9333 1.53333 20.3333 0.399993 25 0.399993C28.4667 0.399993 33 1.33333 38.6 3.19999C39.6667 3.46666 40.4 4 40.8 4.8C41.2 5.46666 41.4 6.13333 41.4 6.79999C41.4 7.73333 41 8.6 40.2 9.4C39.5333 10.0667 38.5333 10.2 37.2 9.79999C33.4667 8.59999 30.2667 7.99999 27.6 7.99999C22 7.99999 19.2 10.0667 19.2 14.2C19.2 17.4 21.5333 21.2667 26.2 25.8C30.8667 30.3333 38.1333 34.3333 48 37.8C49.3333 35.5333 50.9333 33.4 52.8 31.4C54.6667 29.4 56.5333 27.6 58.4 26C65.2 20.6667 73.6667 16.1333 83.8 12.4C94.0667 8.53333 105.2 6.6 117.2 6.6C118.533 6.6 119.867 6.66666 121.2 6.79999C122.533 6.79999 123.867 6.86666 125.2 6.99999C133.6 7.8 139.733 9.8 143.6 13C147.6 16.0667 149.6 19.5333 149.6 23.4C149.6 27.8 147.4 32.2667 143 36.8C138.6 41.2 132.4 44.6667 124.4 47.2C120 48.5333 114.933 49.6 109.2 50.4C103.6 51.0667 97.6667 51.4 91.4 51.4C84.8667 51.4 78.1333 51 71.2 50.2C64.4 49.4 57.8 48.0667 51.4 46.2C51 47.5333 50.8 48.8 50.8 50C50.8 54.1333 53.2667 57.6 58.2 60.4C63.1333 63.2 71.0667 64.6 82 64.6C84.5333 64.6 85.8 65.6 85.8 67.6C85.8 68.5333 85.3333 69.4667 84.4 70.4C83.6 71.2 82.4667 71.7333 81 72C79.4 71.8667 77.8 71.8 76.2 71.8C74.7333 71.6667 73.2667 71.6 71.8 71.6C58.3333 71.6 46.8667 73.6667 37.4 77.8C28.0667 81.8 20.9333 86.8667 16 93C11.2 99.1333 8.8 105.333 8.8 111.6C8.8 118.667 12.1333 124.867 18.8 130.2C25.6 135.533 36.0667 138.2 50.2 138.2C62.7333 138.2 73.6667 137.067 83 134.8C92.3333 132.667 100.333 129.867 107 126.4C113.667 122.933 119.133 119.467 123.4 116C124.067 115.333 125.4 113.933 127.4 111.8C129.4 109.667 131.267 107.333 133 104.8C134.733 102.133 135.6 99.9333 135.6 98.2C135.6 97.4 135.4 96.8 135 96.4C133.8 95.2 133.2 94 133.2 92.8C133.2 90.9333 134.267 90 136.4 90C137.733 90 139.067 90.6667 140.4 92C141.733 93.3333 142.4 95.4 142.4 98.2C142.4 101 141.6 103.867 140 106.8C138.533 109.733 136.667 112.467 134.4 115C132.267 117.4 130.267 119.4 128.4 121C123.6 125.133 117.533 129 110.2 132.6C103 136.2 94.4 139.133 84.4 141.4C74.5333 143.8 63.0667 145 50 145ZM55.2 40.2C60.8 41.8 66.6667 43 72.8 43.8C78.9333 44.4667 84.9333 44.8 90.8 44.8C102.533 44.8 112.6 43.4667 121 40.8C128.2 38.5333 133.4 35.9333 136.6 33C139.933 30.0667 141.6 27.2667 141.6 24.6C141.6 21.9333 140.067 19.6 137 17.6C134.067 15.6 129.867 14.4 124.4 14C123.067 13.8667 121.8 13.8 120.6 13.8C119.4 13.6667 118.133 13.6 116.8 13.6C107.467 13.6 98.6 14.9333 90.2 17.6C81.9333 20.1333 74.6667 23.4667 68.4 27.6C62.2667 31.6 57.6667 35.7333 54.6 40L55.2 40.2ZM170.142 129.6C165.209 129.6 161.476 128.267 158.942 125.6C156.409 123.067 155.142 120.667 155.142 118.4C155.142 115.467 156.609 114 159.542 114C160.209 114 160.876 114.067 161.542 114.2C162.209 114.333 162.942 114.6 163.742 115C166.542 116.333 169.542 117.333 172.742 118C176.076 118.533 179.276 118.867 182.342 119C183.542 118.733 184.676 117 185.742 113.8C186.809 110.6 187.609 107.533 188.142 104.6C188.542 101.8 188.742 98.9333 188.742 96C188.742 91.7333 188.409 87.4 187.742 83C187.076 78.6 186.476 74.2 185.942 69.8C182.342 74.6 178.542 79.4667 174.542 84.4C170.542 89.2 166.809 93.6 163.342 97.6C159.876 101.6 156.942 104.667 154.542 106.8C154.009 107.333 153.342 107.6 152.542 107.6C151.609 107.6 150.809 107.267 150.142 106.6C149.476 105.8 149.142 104.933 149.142 104C149.142 102.8 149.609 101.8 150.542 101C151.742 99.8 153.676 97.7333 156.342 94.8C159.009 91.8667 162.009 88.4 165.342 84.4C168.809 80.2667 172.276 76 175.742 71.6C179.209 67.0667 182.409 62.8 185.342 58.8C185.476 57.4667 185.609 56.2 185.742 55C185.876 53.6667 186.076 52.4 186.342 51.2C187.276 47.0667 189.009 43.9333 191.542 41.8C194.209 39.5333 196.542 38.4 198.542 38.4C200.942 38.4 202.142 39.6667 202.142 42.2C202.142 44.0667 201.142 46.8 199.142 50.4C198.209 51.8667 197.209 53.4667 196.142 55.2C195.076 56.8 193.876 58.5333 192.542 60.4C192.542 65.4667 193.009 70.7333 193.942 76.2C194.876 81.5333 195.409 85.5333 195.542 88.2C195.676 89.5333 195.742 90.8667 195.742 92.2C195.876 93.5333 195.942 94.9333 195.942 96.4C195.942 100.133 195.609 103.867 194.942 107.6C194.409 111.333 193.276 114.733 191.542 117.8C195.142 116.467 198.876 114.733 202.742 112.6C206.609 110.333 209.942 107.933 212.742 105.4C215.409 103.133 217.876 100.733 220.142 98.2C222.409 95.6667 224.542 93.3333 226.542 91.2C227.076 90.5333 227.742 90.2 228.542 90.2C229.209 90.2 229.809 90.6 230.342 91.4C231.009 92.0667 231.342 92.9333 231.342 94C231.342 95.2 231.009 96.2 230.342 97C228.342 99.8 225.542 102.933 221.942 106.4C218.476 109.733 215.409 112.4 212.742 114.4C209.276 116.933 205.009 119.2 199.942 121.2C194.876 123.2 189.676 124.667 184.342 125.6C181.676 127.2 178.542 128.4 174.942 129.2C174.009 129.333 173.142 129.4 172.342 129.4C171.542 129.533 170.809 129.6 170.142 129.6ZM259.334 121.8C256.934 121.8 254.934 121.133 253.334 119.8C251.868 118.467 251.134 116.6 251.134 114.2C251.134 109.133 252.401 104.067 254.934 99C257.468 93.8 260.334 88.7333 263.534 83.8C266.868 78.7333 269.601 74.0667 271.734 69.8C269.601 71.2667 267.201 72.3333 264.534 73C261.868 73.6667 259.268 74 256.734 74C253.134 74 250.334 73.5333 248.334 72.6C245.801 77 242.868 81.4667 239.534 86C236.201 90.4 232.934 94.4 229.734 98C226.668 101.6 224.068 104.333 221.934 106.2C221.001 107 220.068 107.4 219.134 107.4C218.201 107.4 217.401 107.067 216.734 106.4C216.068 105.733 215.734 105 215.734 104.2C215.734 103.533 216.001 102.933 216.534 102.4C218.934 99.8667 221.734 96.6 224.934 92.6C228.268 88.6 231.534 84.3333 234.734 79.8C238.068 75.2667 240.801 71.0667 242.934 67.2C242.801 64.5333 243.134 61.5333 243.934 58.2C244.868 54.8667 246.068 51.6667 247.534 48.6C249.134 45.5333 250.868 43 252.734 41C254.601 38.8667 256.534 37.8 258.534 37.8C260.668 37.8 261.734 39.0667 261.734 41.6C261.734 43.7333 261.068 46.4667 259.734 49.8C258.534 53.1333 257.068 56.4 255.334 59.6C253.734 62.6667 252.334 65.2 251.134 67.2C252.868 67.7333 254.668 68 256.534 68C259.734 68 262.534 67.4 264.934 66.2C267.334 64.8667 269.468 63.6 271.334 62.4C273.201 61.0667 274.801 60.4 276.134 60.4C277.868 60.4 279.001 60.8667 279.534 61.8C280.201 62.6 280.534 63.6667 280.534 65C280.534 67.5333 279.868 70.3333 278.534 73.4C277.201 76.3333 276.201 78.2 275.534 79C274.601 80.4667 273.201 82.6667 271.334 85.6C269.468 88.4 267.601 91.4 265.734 94.6C263.868 97.8 262.334 100.867 261.134 103.8C260.601 105.267 260.068 106.8 259.534 108.4C259.134 109.867 258.934 111.133 258.934 112.2C258.934 113.933 259.668 114.8 261.134 114.8C262.468 114.8 264.401 114.133 266.934 112.8C270.134 111.067 273.068 108.867 275.734 106.2C278.534 103.4 280.934 101 282.934 99C283.068 98.8667 283.668 98.2 284.734 97C285.934 95.8 287.068 94.6 288.134 93.4C289.334 92.2 289.934 91.6 289.934 91.6C290.468 90.9333 291.134 90.6 291.934 90.6C292.601 90.6 293.201 91 293.734 91.8C294.401 92.4667 294.734 93.3333 294.734 94.4C294.734 95.6 294.401 96.6 293.734 97.4C291.734 100.2 289.001 103.267 285.534 106.6C282.068 109.933 279.001 112.667 276.334 114.8C273.534 116.933 270.668 118.667 267.734 120C264.934 121.2 262.134 121.8 259.334 121.8ZM293.606 124C289.873 124 287.073 122.933 285.206 120.8C283.473 118.533 282.606 115.733 282.606 112.4C282.606 108.667 283.673 104.333 285.806 99.4C288.073 94.3333 291.006 89.1333 294.606 83.8C298.206 78.4667 302.14 73.5333 306.406 69C310.806 64.3333 315.206 60.6 319.606 57.8C324.006 54.8667 328.073 53.4 331.806 53.4C334.34 53.4 336.806 53.8 339.206 54.6C341.606 55.2667 343.54 56.6667 345.006 58.8C346.606 60.9333 347.406 64.0667 347.406 68.2C347.406 69.6667 347.006 70.7333 346.206 71.4C345.406 72.0667 344.673 72.4 344.006 72.4C342.54 72.4 341.806 71.8667 341.806 70.8C341.14 66.5333 339.74 63.7333 337.606 62.4C335.606 61.0667 333.673 60.4 331.806 60.4C329.14 60.4 326.006 61.7333 322.406 64.4C318.806 67.0667 315.14 70.4667 311.406 74.6C307.673 78.7333 304.14 83.2 300.806 88C297.606 92.6667 295.006 97.2 293.006 101.6C291.006 105.867 290.006 109.4 290.006 112.2C290.006 113.533 290.206 114.733 290.606 115.8C291.14 116.867 291.94 117.4 293.006 117.4C295.006 117.4 297.606 116.333 300.806 114.2C304.006 112.067 307.406 109.333 311.006 106C314.74 102.533 318.406 98.9333 322.006 95.2C325.606 91.4667 328.873 87.9333 331.806 84.6C334.74 81.2667 337.006 78.6 338.606 76.6C339.406 75.4 340.406 74.8 341.606 74.8C342.54 74.8 343.406 75.1333 344.206 75.8C345.006 76.4667 345.406 77.3333 345.406 78.4C345.406 78.9333 345.206 79.5333 344.806 80.2C343.873 81.6667 342.74 83.7333 341.406 86.4C340.206 89.0667 338.94 91.9333 337.606 95C336.406 98.0667 335.34 100.933 334.406 103.6C333.606 106.133 333.206 108.067 333.206 109.4C333.206 110.733 333.673 111.4 334.606 111.4C335.273 111.4 336.073 111.067 337.006 110.4C338.073 109.733 339.006 109.133 339.806 108.6C343.006 105.933 346.073 103.133 349.006 100.2C351.94 97.1333 354.606 94.2667 357.006 91.6C357.54 90.9333 358.206 90.6 359.006 90.6C359.673 90.6 360.273 91 360.806 91.8C361.473 92.4667 361.806 93.3333 361.806 94.4C361.806 95.6 361.473 96.6 360.806 97.4C358.673 100.2 355.873 103.333 352.406 106.8C348.94 110.133 345.873 112.8 343.206 114.8C341.473 116 339.406 117.2 337.006 118.4C334.74 119.467 332.54 120 330.406 120C328.806 120 327.473 119.533 326.406 118.6C325.34 117.533 324.806 115.733 324.806 113.2C324.806 111.2 325.14 108.933 325.806 106.4C326.473 103.867 327.273 101.267 328.206 98.6C324.473 102.6 320.473 106.533 316.206 110.4C311.94 114.267 307.806 117.533 303.806 120.2C299.94 122.733 296.54 124 293.606 124ZM490.242 156.4C485.976 156.4 482.176 155.067 478.842 152.4C475.642 149.733 474.042 145.067 474.042 138.4C474.042 134.133 475.042 128.867 477.042 122.6C479.176 116.333 481.842 109.867 485.042 103.2C479.442 108.267 473.309 113.133 466.642 117.8C459.976 122.333 452.976 125.933 445.642 128.6C438.309 131.4 430.842 132.6 423.242 132.2C415.776 131.8 410.376 129.267 407.042 124.6C403.842 119.933 402.242 114.333 402.242 107.8C402.376 101.133 403.709 94.2667 406.242 87.2C408.909 80 412.309 73.0667 416.442 66.4C420.576 59.7333 424.776 53.8667 429.042 48.8C419.442 44.5333 411.776 39.4 406.042 33.4C403.509 30.7333 401.576 27.9333 400.242 25C399.042 22.0667 398.442 19.2667 398.442 16.6C398.442 12.4667 399.842 8.93333 402.642 5.99999C405.442 3.06666 409.642 1.59999 415.242 1.59999C419.642 1.59999 424.642 2.66666 430.242 4.8C431.976 5.33333 432.842 6.33333 432.842 7.79999C432.842 8.59999 432.509 9.33333 431.842 10C431.309 10.6667 430.576 11 429.642 11C428.842 11 428.242 10.8667 427.842 10.6C423.176 8.86666 419.176 7.99999 415.842 7.99999C412.509 7.99999 409.976 8.79999 408.242 10.4C406.642 11.8667 405.842 13.7333 405.842 16C405.842 20 408.176 24.6 412.842 29.8C417.509 35 424.576 39.4667 434.042 43.2C440.842 36.1333 448.509 29.6667 457.042 23.8C465.576 17.9333 474.842 13.2667 484.842 9.79999C494.842 6.33333 505.376 4.6 516.442 4.6C517.509 4.6 518.509 4.6 519.442 4.6C520.509 4.6 521.509 4.66666 522.442 4.8C533.909 5.46666 542.376 8.13333 547.842 12.8C553.442 17.3333 556.242 22.4667 556.242 28.2C556.242 33.9333 553.442 39.6667 547.842 45.4C542.242 51 534.109 55 523.442 57.4C521.709 57.8 519.842 58.2 517.842 58.6C519.309 59.1333 520.042 60.2667 520.042 62C520.042 62.8 519.842 63.6 519.442 64.4C518.642 65.3333 517.176 67.1333 515.042 69.8C513.042 72.4667 510.109 76.1333 506.242 80.8C505.576 81.4667 504.976 82.2 504.442 83C500.576 89 496.842 95.5333 493.242 102.6C489.776 109.533 486.909 116.267 484.642 122.8C482.376 129.2 481.242 134.467 481.242 138.6C481.242 142.733 482.109 145.6 483.842 147.2C485.709 148.933 487.909 149.8 490.442 149.8C493.509 149.8 496.642 148.933 499.842 147.2C503.176 145.467 505.776 143.533 507.642 141.4C508.442 140.467 509.309 140 510.242 140C511.176 140 511.976 140.333 512.642 141C513.442 141.667 513.842 142.467 513.842 143.4C513.842 144.2 513.576 144.933 513.042 145.6C510.376 148.8 506.909 151.4 502.642 153.4C498.509 155.4 494.376 156.4 490.242 156.4ZM442.042 46C445.776 46.9333 450.576 48 456.442 49.2C462.442 50.2667 468.976 51.2 476.042 52C483.242 52.8 490.442 53.2 497.642 53.2C506.442 53.2 514.442 52.4 521.642 50.8C531.109 48.5333 537.976 45.4667 542.242 41.6C546.642 37.7333 548.842 33.7333 548.842 29.6C548.842 25.3333 546.509 21.4667 541.842 18C537.176 14.5333 530.509 12.5333 521.842 12C520.776 11.8667 519.709 11.8 518.642 11.8C517.576 11.8 516.509 11.8 515.442 11.8C501.042 11.8 487.509 15 474.842 21.4C462.176 27.8 451.042 35.9333 441.442 45.8L442.042 46ZM409.442 107.8C409.442 119.4 414.976 125.2 426.042 125.2C433.109 125.2 440.109 123.667 447.042 120.6C454.109 117.533 460.842 113.6 467.242 108.8C473.642 103.867 479.509 98.7333 484.842 93.4C490.309 88.0667 494.976 83.0667 498.842 78.4C501.376 74.4 503.842 70.8 506.242 67.6C508.776 64.2667 511.109 61.6 513.242 59.6C513.509 59.3333 513.709 59.1333 513.842 59C508.642 59.6667 502.842 60 496.442 60C486.442 60 475.976 59.2667 465.042 57.8C454.109 56.2 444.509 54.0667 436.242 51.4C431.842 56.3333 427.909 61.5333 424.442 67C419.776 74.4667 416.109 81.8 413.442 89C410.776 96.0667 409.442 102.333 409.442 107.8ZM529.111 121.6C526.178 121.6 523.978 120.6 522.511 118.6C521.044 116.467 520.311 113.933 520.311 111C520.311 108.733 520.711 106.4 521.511 104C522.978 100 524.911 96.0667 527.311 92.2C529.711 88.2 532.378 84.1333 535.311 80C535.844 79.0667 536.711 77.5333 537.911 75.4C539.111 73.2667 540.178 71.0667 541.111 68.8C542.178 66.5333 542.578 64.8 542.311 63.6C542.044 61.2 542.311 59.5333 543.111 58.6C543.911 57.5333 544.844 57 545.911 57C547.244 57 548.378 57.6667 549.311 59C549.844 60.0667 550.111 61.5333 550.111 63.4C550.111 65.4 549.644 67.9333 548.711 71C547.911 73.9333 546.311 77.2 543.911 80.8C541.778 84 539.444 87.4 536.911 91C534.511 94.6 532.444 98.1333 530.711 101.6C529.111 104.933 528.311 107.933 528.311 110.6C528.311 113 529.111 114.2 530.711 114.2C531.511 114.2 532.711 113.8 534.311 113C536.311 111.933 539.311 109.933 543.311 107C547.311 104.067 551.511 100.733 555.911 97C560.444 93.2667 564.578 89.6 568.311 86C572.044 82.4 574.644 79.4667 576.111 77.2C576.778 76 577.978 75.4 579.711 75.4C580.911 75.4 581.844 75.7333 582.511 76.4C583.311 77.0667 583.378 77.9333 582.711 79C581.244 84.4667 578.911 90.9333 575.711 98.4C572.511 105.867 568.911 113.6 564.911 121.6C567.178 121.6 569.511 121.933 571.911 122.6C573.511 123 574.311 124 574.311 125.6C574.311 126.667 573.844 127.667 572.911 128.6C572.111 129.533 571.044 129.8 569.711 129.4C568.778 129.133 567.844 128.933 566.911 128.8C565.978 128.667 564.978 128.6 563.911 128.6C562.978 128.6 562.111 128.6 561.311 128.6C557.178 136.6 552.911 144.2 548.511 151.4C544.111 158.733 540.044 165 536.311 170.2C532.844 175 528.911 179.6 524.511 184C520.244 188.4 515.778 192 511.111 194.8C506.311 197.6 501.511 199 496.711 199C491.511 199 487.511 197.733 484.711 195.2C481.911 192.667 480.511 189.333 480.511 185.2C480.511 181.067 481.711 176.467 484.111 171.4C486.378 166.333 489.444 161.267 493.311 156.2C497.844 150.467 503.511 145.133 510.311 140.2C516.978 135.4 524.311 131.333 532.311 128C540.311 124.8 548.444 122.8 556.711 122C559.111 117.333 561.311 112.867 563.311 108.6C565.444 104.2 567.311 100.133 568.911 96.4C563.578 101.333 557.911 105.867 551.911 110C545.911 114.133 540.978 117.2 537.111 119.2C534.178 120.8 531.511 121.6 529.111 121.6ZM497.511 192C501.778 192 506.311 190.2 511.111 186.6C515.778 183.133 520.511 178.333 525.311 172.2C530.244 166.2 535.044 159.467 539.711 152C544.378 144.667 548.778 137.133 552.911 129.4C542.378 131 532.244 134.6 522.511 140.2C512.778 145.8 504.978 152.467 499.111 160.2C497.911 161.8 496.444 164 494.711 166.8C492.844 169.6 491.244 172.533 489.911 175.6C488.578 178.667 487.911 181.533 487.911 184.2C487.911 186.467 488.644 188.333 490.111 189.8C491.444 191.267 493.911 192 497.511 192ZM597.903 124C594.17 124 591.37 122.933 589.503 120.8C587.77 118.533 586.903 115.733 586.903 112.4C586.903 108.667 587.97 104.333 590.103 99.4C592.37 94.3333 595.303 89.1333 598.903 83.8C602.503 78.4667 606.436 73.5333 610.703 69C615.103 64.3333 619.503 60.6 623.903 57.8C628.303 54.8667 632.37 53.4 636.103 53.4C638.636 53.4 641.103 53.8 643.503 54.6C645.903 55.2667 647.836 56.6667 649.303 58.8C650.903 60.9333 651.703 64.0667 651.703 68.2C651.703 69.6667 651.303 70.7333 650.503 71.4C649.703 72.0667 648.97 72.4 648.303 72.4C646.836 72.4 646.103 71.8667 646.103 70.8C645.436 66.5333 644.036 63.7333 641.903 62.4C639.903 61.0667 637.97 60.4 636.103 60.4C633.436 60.4 630.303 61.7333 626.703 64.4C623.103 67.0667 619.436 70.4667 615.703 74.6C611.97 78.7333 608.436 83.2 605.103 88C601.903 92.6667 599.303 97.2 597.303 101.6C595.303 105.867 594.303 109.4 594.303 112.2C594.303 113.533 594.503 114.733 594.903 115.8C595.436 116.867 596.236 117.4 597.303 117.4C599.303 117.4 601.903 116.333 605.103 114.2C608.303 112.067 611.703 109.333 615.303 106C619.036 102.533 622.703 98.9333 626.303 95.2C629.903 91.4667 633.17 87.9333 636.103 84.6C639.036 81.2667 641.303 78.6 642.903 76.6C643.703 75.4 644.703 74.8 645.903 74.8C646.836 74.8 647.703 75.1333 648.503 75.8C649.303 76.4667 649.703 77.3333 649.703 78.4C649.703 78.9333 649.503 79.5333 649.103 80.2C648.17 81.6667 647.036 83.7333 645.703 86.4C644.503 89.0667 643.236 91.9333 641.903 95C640.703 98.0667 639.636 100.933 638.703 103.6C637.903 106.133 637.503 108.067 637.503 109.4C637.503 110.733 637.97 111.4 638.903 111.4C639.57 111.4 640.37 111.067 641.303 110.4C642.37 109.733 643.303 109.133 644.103 108.6C647.303 105.933 650.37 103.133 653.303 100.2C656.236 97.1333 658.903 94.2667 661.303 91.6C661.836 90.9333 662.503 90.6 663.303 90.6C663.97 90.6 664.57 91 665.103 91.8C665.77 92.4667 666.103 93.3333 666.103 94.4C666.103 95.6 665.77 96.6 665.103 97.4C662.97 100.2 660.17 103.333 656.703 106.8C653.236 110.133 650.17 112.8 647.503 114.8C645.77 116 643.703 117.2 641.303 118.4C639.036 119.467 636.836 120 634.703 120C633.103 120 631.77 119.533 630.703 118.6C629.636 117.533 629.103 115.733 629.103 113.2C629.103 111.2 629.436 108.933 630.103 106.4C630.77 103.867 631.57 101.267 632.503 98.6C628.77 102.6 624.77 106.533 620.503 110.4C616.236 114.267 612.103 117.533 608.103 120.2C604.236 122.733 600.836 124 597.903 124ZM640.1 199C634.9 199 630.833 197.667 627.9 195C624.833 192.467 623.3 189.133 623.3 185C623.3 180.867 624.5 176.2 626.9 171C629.167 165.933 632.233 160.933 636.1 156C640.633 150.133 646.367 144.733 653.3 139.8C660.233 134.867 667.767 130.8 675.9 127.6C684.167 124.533 692.633 122.6 701.3 121.8C701.833 119.267 702.1 116.867 702.1 114.6C702.1 112.733 701.833 111.067 701.3 109.6C700.9 108.133 700.1 106.867 698.9 105.8C697.967 104.867 696.767 104.133 695.3 103.6C693.833 103.067 691.967 102.8 689.7 102.8C686.767 102.8 682.767 103.533 677.7 105C677.033 105.667 676.433 106.333 675.9 107C675.367 107.667 674.967 108.133 674.7 108.4C673.9 109.2 673.1 109.6 672.3 109.6C671.367 109.6 670.5 109.267 669.7 108.6C668.9 107.8 668.5 106.933 668.5 106C668.5 105.333 668.833 104.533 669.5 103.6C670.967 101.867 674.1 98.7333 678.9 94.2C683.7 89.6667 688.9 84.4667 694.5 78.6L699.9 73C695.5 72.6 691.7 71.7333 688.5 70.4C685.433 68.9333 681.567 68.2 676.9 68.2C675.3 68.2 674.5 69 674.5 70.6C674.5 71.8 674.9 73.2 675.7 74.8C676.5 76.4 677.167 77.4667 677.7 78C678.233 78.5333 678.5 79.0667 678.5 79.6C678.5 80.2667 678.033 80.9333 677.1 81.6C676.167 82.1333 675.167 82.4 674.1 82.4C672.9 82.4 671.967 82.0667 671.3 81.4C670.233 80.3333 669.3 78.8 668.5 76.8C667.7 74.6667 667.3 72.6 667.3 70.6C667.3 68.0667 667.967 65.8667 669.3 64C670.767 62.1333 673.3 61.2 676.9 61.2C680.233 61.2 683.033 61.5333 685.3 62.2C687.567 62.8667 689.833 63.6 692.1 64.4C694.367 65.2 697.033 65.8 700.1 66.2C701.567 66.3333 703.033 66.3333 704.5 66.2C705.967 65.9333 707.367 65.4667 708.7 64.8C710.3 63.2 711.767 61.8667 713.1 60.8C714.433 59.7333 715.367 59.1333 715.9 59H716.7C717.767 59 718.567 59.3333 719.1 60C719.633 60.6667 719.9 61.4 719.9 62.2C719.9 63.4 719.5 64.4 718.7 65.2C716.833 67.6 714.7 69.4667 712.3 70.8L685.5 97.2C687.767 96.8 689.833 96.6 691.7 96.6C694.367 96.6 696.7 97 698.7 97.8C700.833 98.4667 702.567 99.4 703.9 100.6C705.9 102.333 707.3 104.4 708.1 106.8C709.033 109.2 709.5 111.733 709.5 114.4C709.5 116.667 709.233 119.067 708.7 121.6C710.7 121.6 712.833 121.933 715.1 122.6C716.7 123 717.5 124 717.5 125.6C717.5 126.667 717.033 127.667 716.1 128.6C715.3 129.533 714.233 129.8 712.9 129.4C711.967 129.133 711.033 128.933 710.1 128.8C709.167 128.667 708.167 128.6 707.1 128.6C706.967 128.6 706.833 128.6 706.7 128.6C704.7 134.467 701.967 140.6 698.5 147C695.167 153.533 691.233 159.867 686.7 166C682.167 172.133 677.3 177.667 672.1 182.6C666.9 187.667 661.567 191.667 656.1 194.6C650.633 197.533 645.3 199 640.1 199ZM631.1 184C631.1 186.267 631.833 188.133 633.3 189.6C634.767 191.067 637.367 191.8 641.1 191.8C645.5 191.8 649.967 190.4 654.5 187.6C659.167 184.8 663.767 181.067 668.3 176.4C672.833 171.867 677.1 166.8 681.1 161.2C685.1 155.6 688.633 150 691.7 144.4C694.767 138.8 697.167 133.667 698.9 129C691.567 129.933 684.3 131.8 677.1 134.6C670.033 137.4 663.5 140.933 657.5 145.2C651.5 149.6 646.433 154.533 642.3 160C641.1 161.6 639.633 163.8 637.9 166.6C636.033 169.4 634.433 172.333 633.1 175.4C631.767 178.467 631.1 181.333 631.1 184Z" fill="black"/>
</svg>
